<?xml version="1.0" encoding="UTF-8"?>
<svg xmlns="http://www.w3.org/2000/svg" xmlns:xlink="http://www.w3.org/1999/xlink" width="95.0mm" height="500.0mm" viewBox="0 0 95.0 500.0" preserveAspectRatio="xMidYMid meet">
  <!-- Printcepts BabyBelt Pro bed texture: 95 x 500 mm belt plate. -->
  <!-- Transparent plate; green (#195F30) BabyBelt Pro logo centered along X, near the bottom edge. -->
  <rect x="0" y="0" width="95.0" height="500.0" fill="none"/>
  <g transform="translate(14.2500,436.3488) scale(0.067538)">
    <g transform="translate(-11.000000,692.938562) scale(0.100000,-0.100000)"
fill="#195F30" stroke="none">
<path d="M1963 5604 l-1423 -1324 0 -2050 0 -2050 443 0 c244 0 741 3 1105 7
l662 6 0 746 c-1 575 -4 768 -14 841 -47 324 -179 486 -473 581 -40 12 -73 26
-73 30 0 4 32 17 72 29 212 64 333 166 378 320 35 121 38 191 32 868 l-5 662
-629 0 c-395 0 -628 4 -628 10 0 5 635 601 1410 1325 776 724 1410 1318 1410
1321 0 2 -190 4 -422 3 l-423 0 -1422 -1325z m-334 -2029 c143 -16 174 -96
173 -446 -2 -411 -24 -458 -224 -462 l-93 -2 -3 450 c-1 248 0 456 3 463 3 9
18 12 47 8 24 -3 67 -8 97 -11z m-4 -1556 c160 -29 173 -62 182 -469 9 -455
-14 -593 -108 -641 -39 -19 -193 -44 -210 -33 -10 6 -13 1147 -3 1157 6 6 45
2 139 -14z"/>
<path d="M3464 5979 c-142 -132 -263 -245 -268 -250 -6 -5 69 -9 190 -9 l199
1 268 249 267 250 -198 0 -198 0 -260 -241z"/>
<path d="M3650 5649 c-135 -126 -254 -238 -265 -249 -19 -20 -18 -20 177 -20
l197 0 228 211 c125 116 246 229 268 250 l40 39 -200 -1 -200 0 -245 -230z"/>
<path d="M2537 5089 c-101 -24 -204 -105 -251 -197 -96 -190 -19 -420 172
-514 l67 -33 2670 0 2670 0 57 27 c74 34 146 107 184 183 43 88 43 230 0 322
-35 76 -113 153 -193 191 l-58 27 -2640 2 c-1513 0 -2656 -3 -2678 -8z m5063
-77 c-57 -37 -118 -111 -140 -168 -31 -82 -25 -206 12 -279 26 -49 93 -121
133 -143 15 -8 -640 -11 -2410 -11 l-2430 0 30 21 c200 146 201 425 1 569
l-39 29 2434 -1 c2263 0 2432 -1 2409 -17z m-4890 -43 c270 -122 185 -526
-109 -522 -257 2 -370 324 -170 485 74 60 194 76 279 37z m5201 -12 c94 -55
140 -135 140 -242 0 -285 -393 -374 -517 -117 -26 54 -30 162 -9 219 28 74 97
139 173 164 53 17 166 4 213 -24z"/>
<path d="M2917 3973 c-4 -174 -7 -550 -7 -835 l0 -518 326 0 326 0 -7 150 -7
150 110 0 110 0 11 -32 c5 -18 26 -86 46 -150 l36 -118 325 0 c179 0 323 4
320 9 -3 4 -155 374 -337 822 -182 448 -333 820 -336 827 -4 9 -105 12 -457
12 l-453 0 -6 -317z m773 -745 c0 -5 -47 -8 -104 -8 l-103 0 -7 92 c-3 50 -6
202 -5 337 l1 246 109 -330 c60 -181 109 -333 109 -337z"/>
<path d="M4680 3455 l0 -835 448 0 c693 1 885 16 985 80 99 63 126 132 134
340 12 327 -44 405 -342 476 -28 7 -27 8 25 19 199 42 255 95 267 248 11 146
-32 285 -110 353 -145 126 -329 153 -1049 154 l-358 0 0 -835z m846 520 c36
-23 44 -54 44 -162 0 -152 -29 -183 -170 -183 l-40 0 0 186 0 187 71 -6 c39
-3 82 -13 95 -22z m4 -625 c33 -18 40 -52 40 -208 0 -200 -9 -214 -143 -228
l-67 -7 0 233 0 233 74 -6 c41 -3 84 -10 96 -17z"/>
<path d="M6150 4286 c0 -3 131 -242 290 -531 l290 -526 0 -304 0 -305 385 0
385 0 0 299 0 299 305 533 305 534 -377 3 c-207 1 -381 -2 -385 -6 -16 -16
-110 -258 -172 -444 l-62 -187 -18 77 c-18 75 -139 450 -171 525 l-15 37 -380
0 c-209 0 -380 -2 -380 -4z"/>
<path d="M2910 1355 l0 -1185 830 0 830 0 0 240 0 240 -350 0 -350 0 0 255 0
255 300 0 300 0 0 230 0 230 -300 0 -300 0 0 220 0 220 320 0 320 0 0 240 0
240 -800 0 -800 0 0 -1185z"/>
<path d="M4680 1355 l0 -1185 775 0 775 0 0 240 0 240 -295 0 -295 0 0 945 0
945 -480 0 -480 0 0 -1185z"/>
<path d="M5800 2300 l0 -240 280 0 280 0 0 -945 0 -945 480 0 480 0 0 945 0
945 285 0 285 0 0 240 0 240 -1045 0 -1045 0 0 -240z"/>
<path d="M8032 1358 l-2 -1188 1008 1 c621 1 971 5 912 10 -309 27 -631 139
-885 306 -593 391 -984 1122 -1025 1918 -4 77 -8 -394 -8 -1047z"/>
<path d="M7441 1934 c-43 -36 -59 -70 -70 -148 -18 -124 16 -252 76 -291 32
-21 226 -33 328 -20 114 14 161 97 153 269 -5 96 -24 151 -68 191 -20 18 -39
20 -205 23 l-182 3 -32 -27z m389 -199 c7 -8 10 -22 6 -30 -4 -13 -34 -15
-186 -15 -189 0 -202 3 -186 45 8 22 348 22 366 0z"/>
<path d="M7450 1267 c-14 -6 -35 -32 -47 -57 -21 -41 -23 -58 -23 -222 l0
-178 270 0 270 0 0 105 0 105 -121 0 -120 0 3 28 3 27 118 3 117 3 0 99 0 100
-113 0 c-121 0 -138 -7 -162 -65 -8 -19 -9 -19 -12 2 -10 55 -116 84 -183 50z
m134 -203 c15 -38 8 -44 -54 -44 -62 0 -69 6 -54 44 9 23 99 23 108 0z"/>
<path d="M466 1193 l-29 -43 -163 0 -164 0 0 -235 0 -235 165 0 165 0 27 -42
28 -42 3 163 c1 89 1 233 0 319 l-3 157 -29 -42z"/>
<path d="M7443 620 c-48 -20 -58 -60 -61 -262 l-4 -188 271 0 271 0 0 110 0
110 -110 0 -110 0 0 70 c0 76 -21 145 -51 160 -22 12 -176 12 -206 0z m161
-186 c15 -39 8 -44 -64 -44 -72 0 -79 5 -64 44 9 23 119 23 128 0z"/>
</g>
  </g>
</svg>
